<svg width="142" height="63" viewBox="0 0 142 63" fill="none" xmlns="http://www.w3.org/2000/svg">
<g id="Frame 5">
<path id="Ellipse 14" d="M26.2618 8.91925C38.6882 8.8745 48.798 18.9117 48.8427 31.3381C48.8875 43.7644 38.8503 53.8742 26.4239 53.919C13.9976 53.9637 3.88779 43.9265 3.84303 31.5001C3.79828 19.0738 13.8355 8.96401 26.2618 8.91925Z" fill="#12BD42"/>
<path id="Ellipse 15" d="M71.4999 8.91925C83.9262 8.8745 94.036 18.9117 94.0808 31.3381C94.1255 43.7644 84.0883 53.8742 71.662 53.919C59.2356 53.9637 49.1258 43.9265 49.0811 31.5001C49.0363 19.0738 59.0736 8.96401 71.4999 8.91925Z" fill="#12BD42"/>
<path id="Ellipse 16" d="M116.5 8.91925C128.926 8.8745 139.036 18.9117 139.081 31.3381C139.126 43.7644 129.088 53.8742 116.662 53.919C104.236 53.9637 94.1258 43.9265 94.0811 31.5001C94.0363 19.0738 104.074 8.96401 116.5 8.91925Z" fill="#0FA93A"/>
</g>
</svg>
