<svg width="98" height="54" viewBox="0 0 98 54" fill="none" xmlns="http://www.w3.org/2000/svg">
<g id="Frame 7">
<path id="Ellipse 14" d="M26.2616 3.91925C38.6879 3.8745 48.7977 13.9117 48.8425 26.3381C48.8873 38.7644 38.85 48.8742 26.4237 48.919C13.9974 48.9637 3.88755 38.9265 3.84279 26.5001C3.79803 14.0738 13.8353 3.96401 26.2616 3.91925Z" fill="url(#paint0_linear_30_175)"/>
<path id="Ellipse 15" d="M71.4999 3.91925C83.9262 3.8745 94.036 13.9117 94.0808 26.3381C94.1255 38.7644 84.0883 48.8742 71.662 48.919C59.2356 48.9637 49.1258 38.9265 49.0811 26.5001C49.0363 14.0738 59.0736 3.96401 71.4999 3.91925Z" fill="url(#paint1_linear_30_175)"/>
</g>
<defs>
<linearGradient id="paint0_linear_30_175" x1="3.84279" y1="26.5001" x2="48.8425" y2="26.3381" gradientUnits="userSpaceOnUse">
<stop stop-color="#1A652F"/>
<stop offset="1" stop-color="#34CB5E"/>
</linearGradient>
<linearGradient id="paint1_linear_30_175" x1="49.0811" y1="26.5001" x2="94.0808" y2="26.3381" gradientUnits="userSpaceOnUse">
<stop stop-color="#1A652F"/>
<stop offset="1" stop-color="#34CB5E"/>
</linearGradient>
</defs>
</svg>
