<svg width="139" height="63" viewBox="0 0 139 63" fill="none" xmlns="http://www.w3.org/2000/svg">
<g id="Frame 6">
<path id="Ellipse 14" d="M26.2616 8.91925C38.6879 8.8745 48.7977 18.9117 48.8425 31.3381C48.8873 43.7644 38.85 53.8742 26.4237 53.919C13.9974 53.9637 3.88755 43.9265 3.84279 31.5001C3.79803 19.0738 13.8353 8.96401 26.2616 8.91925Z" fill="#FFB0F7"/>
<path id="Ellipse 15" d="M71.4999 8.91925C83.9262 8.8745 94.036 18.9117 94.0808 31.3381C94.1255 43.7644 84.0883 53.8742 71.662 53.919C59.2356 53.9637 49.1258 43.9265 49.0811 31.5001C49.0363 19.0738 59.0736 8.96401 71.4999 8.91925Z" fill="#F791ED"/>
<path id="Ellipse 16" d="M116.5 8.91925C128.926 8.8745 139.036 18.9117 139.081 31.3381C139.126 43.7644 129.088 53.8742 116.662 53.919C104.236 53.9637 94.1258 43.9265 94.0811 31.5001C94.0363 19.0738 104.074 8.96401 116.5 8.91925Z" fill="#E97FDE"/>
</g>
</svg>
