<svg width="656" height="404" viewBox="0 0 656 404" fill="none" xmlns="http://www.w3.org/2000/svg">
<g clip-path="url(#clip0_211_43)">
<path d="M196.5 325L304.656 177.807L341.712 303.419L418.827 177.807L471.906 303.419L537 146" stroke="white" stroke-width="20"/>
<path d="M204 321H75L204 163H146.224H87.5" stroke="white" stroke-width="20"/>
<path d="M567.182 121.364V87.8182H584.182C585.545 87.8182 587.03 88.2121 588.636 89C590.242 89.7576 591.606 90.9394 592.727 92.5455C593.879 94.1212 594.455 96.1212 594.455 98.5455C594.455 101 593.864 103.091 592.682 104.818C591.5 106.515 590.061 107.803 588.364 108.682C586.697 109.561 585.121 110 583.636 110H571.364V104.545H581.364C582.364 104.545 583.439 104.045 584.591 103.045C585.773 102.045 586.364 100.545 586.364 98.5455C586.364 96.4848 585.773 95.0909 584.591 94.3636C583.439 93.6364 582.424 93.2727 581.545 93.2727H574.545V121.364H567.182ZM587.455 105.545L595.818 121.364H587.727L579.545 105.545H587.455ZM579.909 141.364C574.879 141.364 570.167 140.424 565.773 138.545C561.379 136.667 557.515 134.061 554.182 130.727C550.848 127.394 548.242 123.53 546.364 119.136C544.485 114.742 543.545 110.03 543.545 105C543.545 99.9697 544.485 95.2576 546.364 90.8636C548.242 86.4697 550.848 82.6061 554.182 79.2727C557.515 75.9394 561.379 73.3333 565.773 71.4545C570.167 69.5758 574.879 68.6364 579.909 68.6364C584.939 68.6364 589.652 69.5758 594.045 71.4545C598.439 73.3333 602.303 75.9394 605.636 79.2727C608.97 82.6061 611.576 86.4697 613.455 90.8636C615.333 95.2576 616.273 99.9697 616.273 105C616.273 110.03 615.333 114.742 613.455 119.136C611.576 123.53 608.97 127.394 605.636 130.727C602.303 134.061 598.439 136.667 594.045 138.545C589.652 140.424 584.939 141.364 579.909 141.364ZM579.909 132.636C585 132.636 589.636 131.394 593.818 128.909C598 126.424 601.333 123.091 603.818 118.909C606.303 114.727 607.545 110.091 607.545 105C607.545 99.9091 606.303 95.2727 603.818 91.0909C601.333 86.9091 598 83.5758 593.818 81.0909C589.636 78.6061 585 77.3636 579.909 77.3636C574.818 77.3636 570.182 78.6061 566 81.0909C561.818 83.5758 558.485 86.9091 556 91.0909C553.515 95.2727 552.273 99.9091 552.273 105C552.273 110.091 553.515 114.727 556 118.909C558.485 123.091 561.818 126.424 566 128.909C570.182 131.394 574.818 132.636 579.909 132.636Z" fill="white"/>
</g>
<rect x="0.5" y="0.5" width="655" height="403" stroke="black"/>
<defs>
<clipPath id="clip0_211_43">
<rect width="656" height="404" fill="white"/>
</clipPath>
</defs>
</svg>
